# xmcd
#
# Track frame offsets:
#	150
#	14531
#	26681
#	48637
#	57514
#	73844
#	88319
#	91769
#	104181
#	116527
#	130872
#	149453
#
# Disc length: 2251 seconds
#
# Revision: 1
# Processed by: cddbd v1.5.2PL0 Copyright (c) Steve Scherf et al.
# Submitted via: audiograbber 1.83.01
#
DISCID=b608c90c
DTITLE=McClatchy Scott - A Dark Rage
DYEAR=2010
DGENRE=Country-Rock
TTITLE0=A Dark Rage
TTITLE1=Toasting My Friends
TTITLE2=Cigarettes, Breath Mints and Visine
TTITLE3=Forever With You
TTITLE4=Rocking In Your Momma's Arms
TTITLE5=Another Bad Day At Boothill Graveyard
TTITLE6=Ian Takes Over
TTITLE7=Sally Maclelanne
TTITLE8=Pay For Your Own Actions
TTITLE9=A Perfect Thing
TTITLE10=Twilight Years
TTITLE11=American Land
EXTD=
EXTT0=
EXTT1=
EXTT2=
EXTT3=
EXTT4=
EXTT5=
EXTT6=
EXTT7=
EXTT8=
EXTT9=
EXTT10=
EXTT11=
PLAYORDER=
